<?xml version="1.0" encoding="UTF-8" standalone="no"?>
<svg
   xmlns:dc="http://purl.org/dc/elements/1.1/"
   xmlns:cc="http://creativecommons.org/ns#"
   xmlns:rdf="http://www.w3.org/1999/02/22-rdf-syntax-ns#"
   xmlns:svg="http://www.w3.org/2000/svg"
   xmlns="http://www.w3.org/2000/svg"
   id="svg167153"
   version="1.1"
   viewBox="0 0 133.35338 65.871117"
   height="65.871117mm"
   width="133.35338mm">
  <defs
     id="defs167147" />
  <metadata
     id="metadata167150">
    <rdf:RDF>
      <cc:Work
         rdf:about="">
        <dc:format>image/svg+xml</dc:format>
        <dc:type
           rdf:resource="http://purl.org/dc/dcmitype/StillImage" />
        <dc:title></dc:title>
      </cc:Work>
    </rdf:RDF>
  </metadata>
  <g
     transform="translate(-8.1625996,-34.254918)"
     id="layer1">
    <path
       style="font-style:normal;font-variant:normal;font-weight:normal;font-stretch:normal;font-size:258.30184937px;line-height:125%;font-family:'Open Sans';-inkscape-font-specification:'Open Sans';letter-spacing:0px;word-spacing:0px;fill:#000000;fill-opacity:1;stroke:none;stroke-width:0.27713153px;stroke-linecap:butt;stroke-linejoin:miter;stroke-opacity:1"
       d="m 91.86479,91.468809 c 1.489225,3.968838 -4.446685,7.879316 -7.452044,4.826861 -1.818088,-3.18905 -2.734828,-6.855796 -3.216477,-10.458927 0.10125,-3.324461 0.492951,-6.641174 0.795976,-9.94668 0.75195,-3.471396 2.262453,-6.747732 2.677075,-10.299447 0.84188,-3.99505 1.567924,-8.467394 4.65895,-11.403838 3.851838,-1.85947 4.911261,3.37881 5.636601,6.019396 1.48791,3.476849 0.935524,7.417087 -0.711506,10.731953 -2.281938,6.523368 -3.661884,13.642911 -2.388575,20.530682 z m 32.3664,3.075859 c -1.3489,-4.528866 -4.04155,-8.492313 -6.85077,-12.233526 -3.86084,2.929732 -7.29778,6.433559 -10.06644,10.415972 0.58643,3.020808 -2.96303,7.375926 -5.89197,4.739703 -3.595139,-3.238025 -2.872364,-8.864661 -0.58384,-12.64992 2.13129,-3.635968 5.51977,-6.273389 8.26971,-9.410178 3.53317,-1.923117 1.3748,-5.52783 -0.94116,-7.357524 -2.15277,-2.349708 -4.20241,-5.474275 -3.46131,-8.812042 -0.5978,-2.688949 1.85844,-6.353201 4.68887,-4.234483 2.86683,1.28285 5.21326,3.447921 7.36589,5.687506 0.93059,3.128505 4.77852,5.439287 6.94184,2.081932 3.99646,-2.890613 7.85397,-6.08924 12.41317,-8.073773 2.59603,1.717819 4.99198,4.895969 3.9475,8.155627 -2.62977,4.038163 -7.78074,5.070812 -11.00861,8.460036 -2.82057,1.009833 -5.52391,4.52812 -2.48656,6.894545 1.9242,3.331688 4.78576,6.139541 6.11876,9.787542 1.08439,3.171463 -0.13567,7.297337 -3.29707,8.723536 -1.99957,0.859746 -3.35458,-0.893255 -4.79296,-1.912378 -0.12169,-0.08752 -0.24336,-0.17505 -0.36505,-0.262575 z"
       id="text4136" />
    <path
       style="font-style:normal;font-variant:normal;font-weight:normal;font-stretch:normal;font-size:258.30184937px;line-height:125%;font-family:'Open Sans';-inkscape-font-specification:'Open Sans';letter-spacing:0px;word-spacing:0px;fill:#000000;fill-opacity:1;stroke:none;stroke-width:0.27713153px;stroke-linecap:butt;stroke-linejoin:miter;stroke-opacity:1"
       d="m 57.686741,34.868367 c -21.795057,3.839455 -42.394443,25.344774 -47.304786,43.507561 -1.1294414,4.983495 -2.042307,10.868548 1.425772,15.178139 9.64702,13.398873 39.82599,0.548057 50.050055,-2.691308 0.379402,2.522344 -1.685845,5.205951 -0.481611,7.596716 1.682187,1.213896 3.303387,-1.153629 4.366282,-2.192241 4.735464,-5.374815 8.304183,-11.969995 9.713205,-19.012563 0.07326,-2.726388 -3.299433,-3.540562 -5.404443,-3.777358 -8.811385,-2.028556 -17.906677,-1.968304 -26.884727,-1.528761 -1.566218,1.065931 -0.08994,2.923079 1.221095,3.387089 3.250082,1.823437 6.971103,2.672401 10.151059,4.619081 -7.591853,6.07923 -28.896728,11.250345 -29.777064,0.184326 0.01901,-6.315174 4.196594,-11.741545 7.959211,-16.355174 6.422799,-7.185991 14.670906,-13.838061 24.569613,-14.994861 3.686596,-1.676139 6.662692,-5.637015 6.584767,-9.782407 -0.111087,-3.150653 -3.501948,-4.326882 -6.188428,-4.138239 z"
       id="text4136-3-2-9-3" />
  </g>
</svg>
